<?xml version="1.0" encoding="UTF-8" standalone="no"?>
<!-- Uploaded to: SVG Repo, www.svgrepo.com, Generator: SVG Repo Mixer Tools -->

<svg
   width="800px"
   height="800px"
   viewBox="0 0 16 16"
   fill="#000000"
   class="bi bi-brightness-high"
   version="1.1"
   id="svg1"
   sodipodi:docname="brightness-1.svg"
   inkscape:version="1.4.2 (ebf0e940d0, 2025-05-08)"
   xmlns:inkscape="http://www.inkscape.org/namespaces/inkscape"
   xmlns:sodipodi="http://sodipodi.sourceforge.net/DTD/sodipodi-0.dtd"
   xmlns="http://www.w3.org/2000/svg"
   xmlns:svg="http://www.w3.org/2000/svg">
  <defs
     id="defs1">
    <filter
       style="color-interpolation-filters:sRGB;"
       inkscape:label="Invert"
       id="filter1"
       x="0"
       y="0"
       width="1"
       height="1">
      <feColorMatrix
         values="-1 0 0 0 1 0 -1 0 0 1 0 0 -1 0 1 -0.21 -0.72 -0.07 1.83137 0 "
         result="color2"
         id="feColorMatrix1" />
    </filter>
  </defs>
  <sodipodi:namedview
     id="namedview1"
     pagecolor="#ffffff"
     bordercolor="#000000"
     borderopacity="0.25"
     inkscape:showpageshadow="2"
     inkscape:pageopacity="0.0"
     inkscape:pagecheckerboard="0"
     inkscape:deskcolor="#d1d1d1"
     inkscape:zoom="1.04125"
     inkscape:cx="328.45138"
     inkscape:cy="349.09964"
     inkscape:window-width="1896"
     inkscape:window-height="1015"
     inkscape:window-x="0"
     inkscape:window-y="0"
     inkscape:window-maximized="1"
     inkscape:current-layer="svg1" />
  <path
     d="m 8,11 a 3,3 0 1 1 0,-6 3,3 0 0 1 0,6 z m 0,1 A 4,4 0 1 0 8,4 4,4 0 0 0 8,12 Z M 8,0 a 0.5,0.5 0 0 1 0.5,0.5 v 2 a 0.5,0.5 0 0 1 -1,0 v -2 A 0.5,0.5 0 0 1 8,0 Z m 0,13 a 0.5,0.5 0 0 1 0.5,0.5 v 2 a 0.5,0.5 0 0 1 -1,0 v -2 A 0.5,0.5 0 0 1 8,13 Z m 8,-5 a 0.5,0.5 0 0 1 -0.5,0.5 h -2 a 0.5,0.5 0 0 1 0,-1 h 2 A 0.5,0.5 0 0 1 16,8 Z M 3,8 A 0.5,0.5 0 0 1 2.5,8.5 h -2 a 0.5,0.5 0 0 1 0,-1 h 2 A 0.5,0.5 0 0 1 3,8 Z M 13.657,2.343 a 0.5,0.5 0 0 1 0,0.707 L 12.243,4.465 A 0.50027817,0.50027817 0 1 1 11.536,3.757 L 12.95,2.343 a 0.5,0.5 0 0 1 0.707,0 z m -9.193,9.193 a 0.5,0.5 0 0 1 0,0.707 L 3.05,13.657 A 0.5,0.5 0 0 1 2.343,12.95 l 1.414,-1.414 a 0.5,0.5 0 0 1 0.707,0 z m 9.193,2.121 a 0.5,0.5 0 0 1 -0.707,0 l -1.414,-1.414 a 0.5,0.5 0 0 1 0.707,-0.707 l 1.414,1.414 a 0.5,0.5 0 0 1 0,0.707 z M 4.464,4.465 a 0.5,0.5 0 0 1 -0.707,0 L 2.343,3.05 A 0.5,0.5 0 1 1 3.05,2.343 l 1.414,1.414 a 0.5,0.5 0 0 1 0,0.708 z"
     id="path1"
     style="filter:url(#filter1)"
     transform="matrix(0.75,0,0,0.75,2,2)" />
</svg>
