<?xml version="1.0" encoding="UTF-8" standalone="no"?>
<!-- Uploaded to: SVG Repo, www.svgrepo.com, Generator: SVG Repo Mixer Tools -->

<svg
   width="800px"
   height="800px"
   viewBox="0 0 16 16"
   fill="#000000"
   class="bi bi-brightness-alt-low"
   version="1.1"
   id="svg1"
   sodipodi:docname="brightness-3.svg"
   inkscape:version="1.4.2 (ebf0e940d0, 2025-05-08)"
   xmlns:inkscape="http://www.inkscape.org/namespaces/inkscape"
   xmlns:sodipodi="http://sodipodi.sourceforge.net/DTD/sodipodi-0.dtd"
   xmlns="http://www.w3.org/2000/svg"
   xmlns:svg="http://www.w3.org/2000/svg">
  <defs
     id="defs1">
    <filter
       style="color-interpolation-filters:sRGB;"
       inkscape:label="Invert"
       id="filter2"
       x="0"
       y="0"
       width="1"
       height="1">
      <feColorMatrix
         type="hueRotate"
         values="180"
         result="color1"
         id="feColorMatrix1" />
      <feColorMatrix
         values="0 0 -1 0 1 0 -1 0 0 1 -1 0 0 0 1 -0.21 -0.72 -0.07 1.8762 0 "
         result="color2"
         id="feColorMatrix2" />
    </filter>
  </defs>
  <sodipodi:namedview
     id="namedview1"
     pagecolor="#ffffff"
     bordercolor="#000000"
     borderopacity="0.25"
     inkscape:showpageshadow="2"
     inkscape:pageopacity="0.0"
     inkscape:pagecheckerboard="0"
     inkscape:deskcolor="#d1d1d1"
     inkscape:zoom="1.04125"
     inkscape:cx="400"
     inkscape:cy="400"
     inkscape:window-width="973"
     inkscape:window-height="1015"
     inkscape:window-x="0"
     inkscape:window-y="0"
     inkscape:window-maximized="1"
     inkscape:current-layer="svg1" />
  <path
     d="M8.5 5.5a.5.5 0 1 1-1 0 .5.5 0 0 1 1 0zm5 6a.5.5 0 1 1 0-1 .5.5 0 0 1 0 1zM2 11a.5.5 0 1 0 1 0 .5.5 0 0 0-1 0zm10.243-3.536a.5.5 0 1 1-.707-.707.5.5 0 0 1 .707.707zm-8.486-.707a.5.5 0 1 0 .707.707.5.5 0 0 0-.707-.707zM8 7a4 4 0 0 0-4 4 .5.5 0 0 0 .5.5h7a.5.5 0 0 0 .5-.5 4 4 0 0 0-4-4zm0 1a3 3 0 0 1 2.959 2.5H5.04A3 3 0 0 1 8 8z"
     id="path1"
     style="filter:url(#filter2)" />
</svg>
